# xmcd CD database file
#
# Track frame offsets:
#	150
#	20598
#	42635
#	56433
#	72632
#	95812
#	118549
#	137598
#	162344
#	182294
#
# Disc length: 2729 seconds
#
# Revision: 1
# Processed by: cddbd v1.5.2PL0 Copyright (c) Steve Scherf et al.
# Submitted via: CDex 1.70beta2
#
DISCID=8c0aa70a
DTITLE=MO Blues - Get the Blues Out of You
DYEAR=2004
DGENRE=Blues
TTITLE0=01-Gotta make some changes
TTITLE1=02-I want you to be with me
TTITLE2=03-Friday night boogie
TTITLE3=04-Good morning Angel
TTITLE4=05-Happiness
TTITLE5=06-Get the blues out of you
TTITLE6=07-God bless the child
TTITLE7=08-Cool blues walk
TTITLE8=09-I used to be a bad boy
TTITLE9=10-People get ready
EXTD=YEAR: 2004
EXTT0=
EXTT1=
EXTT2=
EXTT3=
EXTT4=
EXTT5=
EXTT6=
EXTT7=
EXTT8=
EXTT9=
PLAYORDER=
